<?xml version="1.0" standalone="no"?>
<!DOCTYPE svg PUBLIC "-//W3C//DTD SVG 20010904//EN"
 "http://www.w3.org/TR/2001/REC-SVG-20010904/DTD/svg10.dtd">
<svg version="1.0" xmlns="http://www.w3.org/2000/svg"
 width="751.000000pt" height="1566.000000pt" viewBox="0 0 751.000000 1566.000000"
 preserveAspectRatio="xMidYMid meet">

<g transform="translate(0.000000,1566.000000) scale(0.100000,-0.100000)"
fill="red" stroke="none">
<path d="M3330 15513 c-487 -17 -1063 -69 -1540 -139 -267 -39 -643 -106 -657
-117 -10 -7 -13 -78 -13 -293 l0 -284 -41 0 c-36 0 -41 -2 -36 -20 6 -23 10
-21 -128 -45 -49 -9 -98 -18 -107 -21 -25 -7 -35 -54 -55 -249 -19 -188 -25
-746 -9 -890 l9 -80 37 255 c20 140 43 268 51 284 8 16 31 38 52 49 32 17 47
18 85 11 85 -16 84 -1 24 -486 -29 -232 -55 -436 -58 -453 -4 -23 -22 -42 -77
-82 -40 -29 -99 -73 -131 -99 l-59 -48 7 47 c4 27 3 47 -2 47 -5 0 -12 -26
-16 -59 -6 -51 -11 -61 -40 -82 -18 -13 -64 -51 -101 -84 -37 -33 -104 -92
-149 -132 -135 -119 -188 -204 -205 -324 -5 -40 -4 -186 5 -394 37 -921 55
-2114 54 -3605 -1 -1073 15 -2816 28 -3207 l7 -202 33 -34 c71 -74 291 -106
422 -63 77 25 115 43 130 61 11 13 11 236 1 1208 -6 656 -12 1505 -12 1887 0
449 -5 758 -13 873 -15 219 -5 538 24 752 23 175 84 412 128 505 l31 65 -5
-76 c-6 -78 0 -119 17 -119 5 0 10 15 11 33 2 17 5 -2094 8 -4693 l5 -4725 28
-56 c29 -60 38 -71 90 -101 146 -85 206 -96 520 -99 233 -2 249 -1 267 17 15
15 23 51 36 162 l18 142 47 0 c56 0 55 -2 64 123 l7 87 1698 0 1698 0 7 -87
c9 -126 8 -123 64 -123 l48 0 7 -62 c16 -152 30 -231 43 -244 21 -21 522 -20
611 1 132 31 232 102 276 195 l21 45 5 4725 c3 2599 6 4710 8 4693 1 -18 6
-33 11 -33 17 0 23 42 16 116 -4 41 -5 74 -2 74 3 0 21 -37 39 -82 44 -105
102 -345 122 -508 25 -198 34 -524 20 -723 -8 -112 -13 -409 -13 -847 0 -371
-6 -1223 -12 -1893 -11 -1120 -11 -1219 4 -1235 20 -22 120 -58 203 -72 115
-20 293 22 350 81 l29 30 7 212 c13 417 28 2141 28 3202 -1 1483 17 2678 54
3595 8 193 10 353 5 393 -15 123 -68 209 -205 330 -128 113 -206 182 -241 212
-20 16 -33 36 -33 50 0 13 -4 27 -10 30 -5 3 -10 39 -10 78 0 78 -17 200 -28
204 -4 2 -5 55 -4 118 2 69 0 115 -6 115 -12 0 -22 -58 -22 -125 0 -27 12
-126 25 -220 14 -93 25 -176 25 -183 0 -8 -23 5 -52 29 -40 31 -170 129 -206
154 -4 3 -112 862 -112 894 0 96 163 108 209 15 8 -16 31 -144 51 -284 l37
-255 9 80 c16 145 10 702 -9 890 -20 195 -30 242 -55 249 -9 3 -57 12 -107 21
-138 24 -134 22 -128 45 5 18 0 20 -36 20 l-41 0 0 283 c0 155 -4 287 -8 293
-10 17 -562 107 -937 154 -401 49 -893 88 -1270 100 -262 8 -783 10 -975 3z
m-1879 -5013 c2 -55 12 -106 39 -190 43 -131 47 -200 15 -224 -31 -23 -50 -19
-83 18 -72 82 -110 219 -103 368 1 14 119 113 127 106 1 -2 4 -37 5 -78z
m4832 16 c38 -32 39 -33 38 -102 -1 -38 -5 -86 -10 -106 -5 -21 -7 -38 -5 -38
2 0 -10 -30 -27 -67 -52 -116 -117 -163 -153 -111 -23 33 -20 70 18 198 20 70
36 148 39 200 3 47 6 86 6 88 2 6 57 -30 94 -62z m-4251 -548 c-8 -8 -9 -4 -5
13 4 13 8 18 11 10 2 -7 -1 -18 -6 -23z"/>
<path d="M712 13168 c-12 -90 -22 -181 -21 -203 1 -22 12 32 24 120 35 243 35
245 27 245 -5 0 -18 -73 -30 -162z"/>
</g>
</svg>
